# xmcd CD database file
#
# Track frame offsets:
#	225
#	10148
#	20975
#	32708
#	47283
#	65773
#	77405
#	90680
#	98818
#	108917
#	121974
#	133875
#	151907
#
# Disc length: 2188 seconds
#
# Revision: 0
# Processed by: cddbd v1.5.1PL0 Copyright (c) Steve Scherf et al.
# Submitted via: CDex 1.51
#
DISCID=a008890d
DTITLE=Ruby Fradkin - Circle Of Dreams
DYEAR=2004
DGENRE=New Age
TTITLE0=Your Majesty
TTITLE1=Metamorphosis
TTITLE2=Hatikvoh
TTITLE3=Circle Of Dreams
TTITLE4=Georgia On My Mind
TTITLE5=Gathering Hope
TTITLE6=The Merry Widow Waltz
TTITLE7=Polonaise (in G minor)
TTITLE8=The Piano Player (Lives Forever)
TTITLE9=Somewhere Over The Rainbow
TTITLE10=Breaking Through
TTITLE11=The Devil Made Me Do It
TTITLE12=You Are My Sunshine
EXTD=YEAR: 2004
EXTT0=
EXTT1=
EXTT2=
EXTT3=
EXTT4=
EXTT5=
EXTT6=
EXTT7=
EXTT8=
EXTT9=
EXTT10=
EXTT11=
EXTT12=
PLAYORDER=
